<svg width="170" height="40" viewBox="0 0 170 40" fill="none" xmlns="http://www.w3.org/2000/svg">
<rect width="40" height="40" rx="8" fill="white"/>
<path d="M13.5766 17.9602L15.5266 18.7852C15.76 18.3185 16.0016 17.8685 16.2516 17.4352C16.5016 17.0018 16.7766 16.5685 17.0766 16.1352L15.6766 15.8602V15.8602V15.8602L13.5766 17.9602V17.9602M17.1266 20.0352L19.9766 22.8602C20.6766 22.5935 21.4266 22.1852 22.2266 21.6352C23.0266 21.0852 23.7766 20.4602 24.4766 19.7602C25.6433 18.5935 26.5558 17.2977 27.2141 15.8727C27.8725 14.4477 28.16 13.1352 28.0766 11.9352C26.8766 11.8518 25.56 12.1393 24.1266 12.7977C22.6933 13.456 21.3933 14.3685 20.2266 15.5352C19.5266 16.2352 18.9016 16.9852 18.3516 17.7852C17.8016 18.5852 17.3933 19.3352 17.1266 20.0352V20.0352M21.5766 18.4102C21.1933 18.0268 21.0016 17.556 21.0016 16.9977C21.0016 16.4393 21.1933 15.9685 21.5766 15.5852C21.96 15.2018 22.435 15.0102 23.0016 15.0102C23.5683 15.0102 24.0433 15.2018 24.4266 15.5852C24.81 15.9685 25.0016 16.4393 25.0016 16.9977C25.0016 17.556 24.81 18.0268 24.4266 18.4102C24.0433 18.7935 23.5683 18.9852 23.0016 18.9852C22.435 18.9852 21.96 18.7935 21.5766 18.4102V18.4102M22.0516 26.4352L24.1516 24.3352V24.3352V24.3352L23.8766 22.9352C23.4433 23.2352 23.01 23.506 22.5766 23.7477C22.1433 23.9893 21.6933 24.2268 21.2266 24.4602L22.0516 26.4352V26.4352M29.8766 10.1102C30.1933 12.1268 29.9975 14.0893 29.2891 15.9977C28.5808 17.906 27.36 19.7268 25.6266 21.4602V21.4602V21.4602L26.1266 23.9352C26.1933 24.2685 26.1766 24.5935 26.0766 24.9102C25.9766 25.2268 25.81 25.5018 25.5766 25.7352L21.3766 29.9352L19.2766 25.0102L15.0016 20.7352L10.0766 18.6352L14.2516 14.4352C14.485 14.2018 14.7641 14.0352 15.0891 13.9352C15.4141 13.8352 15.7433 13.8185 16.0766 13.8852L18.5516 14.3852V14.3852V14.3852C20.285 12.6518 22.1016 11.4268 24.0016 10.7102C25.9016 9.9935 27.86 9.7935 29.8766 10.1102V10.1102M11.8516 23.9102C12.435 23.3268 13.1475 23.031 13.9891 23.0227C14.8308 23.0143 15.5433 23.3018 16.1266 23.8852C16.71 24.4685 16.9975 25.181 16.9891 26.0227C16.9808 26.8643 16.685 27.5768 16.1016 28.1602C15.685 28.5768 14.9891 28.9352 14.0141 29.2352C13.0391 29.5352 11.6933 29.8018 9.97662 30.0352C10.21 28.3185 10.4766 26.9727 10.7766 25.9977C11.0766 25.0227 11.435 24.3268 11.8516 23.9102V23.9102M13.2766 25.3102C13.11 25.4768 12.9433 25.781 12.7766 26.2227C12.61 26.6643 12.4933 27.1102 12.4266 27.5602C12.8766 27.4935 13.3225 27.381 13.7641 27.2227C14.2058 27.0643 14.51 26.9018 14.6766 26.7352C14.8766 26.5352 14.985 26.2935 15.0016 26.0102C15.0183 25.7268 14.9266 25.4852 14.7266 25.2852C14.5266 25.0852 14.285 24.9893 14.0016 24.9977C13.7183 25.006 13.4766 25.1102 13.2766 25.3102V25.3102" fill="#003D9B"/>
<path d="M57.688 29V14.768H52.24V11.72H66.4V14.768H60.952V29H57.688ZM69.6409 29.36C68.7129 29.36 67.9249 29.184 67.2769 28.832C66.6369 28.472 66.1489 27.996 65.8129 27.404C65.4849 26.804 65.3209 26.144 65.3209 25.424C65.3209 24.824 65.4129 24.276 65.5969 23.78C65.7809 23.284 66.0769 22.848 66.4849 22.472C66.9009 22.088 67.4569 21.768 68.1529 21.512C68.6329 21.336 69.2049 21.18 69.8689 21.044C70.5329 20.908 71.2849 20.78 72.1249 20.66C72.9649 20.532 73.8889 20.392 74.8969 20.24L73.7209 20.888C73.7209 20.12 73.5369 19.556 73.1689 19.196C72.8009 18.836 72.1849 18.656 71.3209 18.656C70.8409 18.656 70.3409 18.772 69.8209 19.004C69.3009 19.236 68.9369 19.648 68.7289 20.24L65.7769 19.304C66.1049 18.232 66.7209 17.36 67.6249 16.688C68.5289 16.016 69.7609 15.68 71.3209 15.68C72.4649 15.68 73.4809 15.856 74.3689 16.208C75.2569 16.56 75.9289 17.168 76.3849 18.032C76.6409 18.512 76.7929 18.992 76.8409 19.472C76.8889 19.952 76.9129 20.488 76.9129 21.08V29H74.0569V26.336L74.4649 26.888C73.8329 27.76 73.1489 28.392 72.4129 28.784C71.6849 29.168 70.7609 29.36 69.6409 29.36ZM70.3369 26.792C70.9369 26.792 71.4409 26.688 71.8489 26.48C72.2649 26.264 72.5929 26.02 72.8329 25.748C73.0809 25.476 73.2489 25.248 73.3369 25.064C73.5049 24.712 73.6009 24.304 73.6249 23.84C73.6569 23.368 73.6729 22.976 73.6729 22.664L74.6329 22.904C73.6649 23.064 72.8809 23.2 72.2809 23.312C71.6809 23.416 71.1969 23.512 70.8289 23.6C70.4609 23.688 70.1369 23.784 69.8569 23.888C69.5369 24.016 69.2769 24.156 69.0769 24.308C68.8849 24.452 68.7409 24.612 68.6449 24.788C68.5569 24.964 68.5129 25.16 68.5129 25.376C68.5129 25.672 68.5849 25.928 68.7289 26.144C68.8809 26.352 69.0929 26.512 69.3649 26.624C69.6369 26.736 69.9609 26.792 70.3369 26.792ZM84.4971 29.36C82.8651 29.36 81.5451 28.992 80.5371 28.256C79.5371 27.512 78.9291 26.464 78.7131 25.112L82.0491 24.608C82.1851 25.216 82.4851 25.692 82.9491 26.036C83.4211 26.38 84.0171 26.552 84.7371 26.552C85.3291 26.552 85.7851 26.44 86.1051 26.216C86.4251 25.984 86.5851 25.664 86.5851 25.256C86.5851 25 86.5211 24.796 86.3931 24.644C86.2651 24.484 85.9771 24.328 85.5291 24.176C85.0891 24.024 84.4011 23.824 83.4651 23.576C82.4091 23.304 81.5651 23 80.9331 22.664C80.3011 22.328 79.8451 21.928 79.5651 21.464C79.2851 20.992 79.1451 20.424 79.1451 19.76C79.1451 18.928 79.3571 18.208 79.7811 17.6C80.2051 16.984 80.8011 16.512 81.5691 16.184C82.3451 15.848 83.2571 15.68 84.3051 15.68C85.3211 15.68 86.2211 15.836 87.0051 16.148C87.7891 16.46 88.4211 16.904 88.9011 17.48C89.3891 18.056 89.6891 18.736 89.8011 19.52L86.4651 20.12C86.4091 19.64 86.2011 19.26 85.8411 18.98C85.4811 18.7 84.9931 18.536 84.3771 18.488C83.7771 18.448 83.2931 18.528 82.9251 18.728C82.5651 18.928 82.3851 19.216 82.3851 19.592C82.3851 19.816 82.4611 20.004 82.6131 20.156C82.7731 20.308 83.0971 20.464 83.5851 20.624C84.0811 20.784 84.8331 20.992 85.8411 21.248C86.8251 21.504 87.6131 21.804 88.2051 22.148C88.8051 22.484 89.2411 22.892 89.5131 23.372C89.7851 23.844 89.9211 24.416 89.9211 25.088C89.9211 26.416 89.4411 27.46 88.4811 28.22C87.5211 28.98 86.1931 29.36 84.4971 29.36ZM91.9341 29L91.9581 11.72H95.2701V22.28L99.6621 16.04H103.694L99.0141 22.52L104.006 29H99.7581L95.2701 22.76V29H91.9341ZM104.6 29V11.72H115.16V14.984H107.864V18.728H113.72V21.992H107.864V29H104.6ZM116.967 29V11.36H120.231V29H116.967ZM129.06 29.36C127.756 29.36 126.612 29.068 125.628 28.484C124.644 27.9 123.876 27.096 123.324 26.072C122.78 25.04 122.508 23.856 122.508 22.52C122.508 21.168 122.788 19.98 123.348 18.956C123.908 17.924 124.68 17.12 125.664 16.544C126.648 15.968 127.78 15.68 129.06 15.68C130.364 15.68 131.508 15.972 132.492 16.556C133.484 17.14 134.256 17.948 134.808 18.98C135.36 20.004 135.636 21.184 135.636 22.52C135.636 23.864 135.356 25.052 134.796 26.084C134.244 27.108 133.472 27.912 132.48 28.496C131.496 29.072 130.356 29.36 129.06 29.36ZM129.06 26.312C130.108 26.312 130.888 25.96 131.4 25.256C131.92 24.544 132.18 23.632 132.18 22.52C132.18 21.368 131.916 20.448 131.388 19.76C130.868 19.072 130.092 18.728 129.06 18.728C128.348 18.728 127.764 18.888 127.308 19.208C126.852 19.528 126.512 19.972 126.288 20.54C126.072 21.108 125.964 21.768 125.964 22.52C125.964 23.68 126.224 24.604 126.744 25.292C127.272 25.972 128.044 26.312 129.06 26.312ZM139.967 29L136.007 16.016L139.199 16.04L141.551 23.768L143.939 16.04H146.651L149.039 23.768L151.391 16.04H154.583L150.623 29H148.127L145.295 20.552L142.463 29H139.967Z" fill="white"/>
</svg>
